<svg xmlns="http://www.w3.org/2000/svg" xmlns:xlink="http://www.w3.org/1999/xlink" width="500" zoomAndPan="magnify" viewBox="0 0 375 374.999991" height="500" preserveAspectRatio="xMidYMid meet" version="1.2"><defs/><g id="99b2fb8d62"><g style="fill:#000000;fill-opacity:1;"><g transform="translate(44.730177, 199.052447)"><path style="stroke:none" d="M 2.859375 -16.265625 L 2.859375 -22.328125 L 8.46875 -22.328125 L 8.46875 -16.265625 L 11.890625 -16.265625 L 11.890625 -11.984375 L 8.46875 -11.984375 L 8.46875 -6.8125 C 8.46875 -5.3125 8.890625 -4.5625 9.734375 -4.5625 C 9.953125 -4.5625 10.175781 -4.601562 10.40625 -4.6875 C 10.632812 -4.78125 10.8125 -4.867188 10.9375 -4.953125 L 11.140625 -5.078125 L 12.53125 -0.546875 C 11.320312 0.128906 9.945312 0.46875 8.40625 0.46875 C 7.34375 0.46875 6.429688 0.285156 5.671875 -0.078125 C 4.910156 -0.453125 4.332031 -0.945312 3.9375 -1.5625 C 3.550781 -2.1875 3.273438 -2.84375 3.109375 -3.53125 C 2.941406 -4.21875 2.859375 -4.953125 2.859375 -5.734375 L 2.859375 -11.984375 L 0.5 -11.984375 L 0.5 -16.265625 Z M 2.859375 -16.265625 "/></g></g><g style="fill:#000000;fill-opacity:1;"><g transform="translate(54.563455, 199.052447)"><path style="stroke:none" d="M 1.90625 0 L 1.90625 -27.28125 L 7.515625 -27.28125 L 7.515625 -14.5625 L 7.578125 -14.5625 C 9.035156 -16.019531 10.59375 -16.75 12.25 -16.75 C 13.050781 -16.75 13.847656 -16.640625 14.640625 -16.421875 C 15.429688 -16.210938 16.191406 -15.882812 16.921875 -15.4375 C 17.648438 -15 18.238281 -14.375 18.6875 -13.5625 C 19.144531 -12.75 19.375 -11.800781 19.375 -10.71875 L 19.375 0 L 13.765625 0 L 13.765625 -9.203125 C 13.765625 -10.046875 13.492188 -10.785156 12.953125 -11.421875 C 12.410156 -12.054688 11.707031 -12.375 10.84375 -12.375 C 10 -12.375 9.234375 -12.046875 8.546875 -11.390625 C 7.859375 -10.734375 7.515625 -10.003906 7.515625 -9.203125 L 7.515625 0 Z M 1.90625 0 "/></g></g><g style="fill:#000000;fill-opacity:1;"><g transform="translate(72.834954, 199.052447)"><path style="stroke:none" d="M 18.359375 -7.359375 L 6.5625 -7.359375 C 6.5625 -6.210938 6.929688 -5.363281 7.671875 -4.8125 C 8.410156 -4.269531 9.21875 -4 10.09375 -4 C 11 -4 11.710938 -4.117188 12.234375 -4.359375 C 12.765625 -4.597656 13.367188 -5.078125 14.046875 -5.796875 L 18.109375 -3.78125 C 16.421875 -0.945312 13.609375 0.46875 9.671875 0.46875 C 7.222656 0.46875 5.117188 -0.367188 3.359375 -2.046875 C 1.609375 -3.722656 0.734375 -5.742188 0.734375 -8.109375 C 0.734375 -10.484375 1.609375 -12.515625 3.359375 -14.203125 C 5.117188 -15.898438 7.222656 -16.75 9.671875 -16.75 C 12.253906 -16.75 14.351562 -16.003906 15.96875 -14.515625 C 17.582031 -13.023438 18.390625 -10.894531 18.390625 -8.125 C 18.390625 -7.738281 18.378906 -7.484375 18.359375 -7.359375 Z M 6.71875 -10.46875 L 12.90625 -10.46875 C 12.78125 -11.3125 12.445312 -11.957031 11.90625 -12.40625 C 11.363281 -12.863281 10.671875 -13.09375 9.828125 -13.09375 C 8.898438 -13.09375 8.160156 -12.847656 7.609375 -12.359375 C 7.054688 -11.878906 6.757812 -11.25 6.71875 -10.46875 Z M 6.71875 -10.46875 "/></g></g><g style="fill:#000000;fill-opacity:1;"><g transform="translate(89.26654, 199.052447)"><path style="stroke:none" d=""/></g></g><g style="fill:#000000;fill-opacity:1;"><g transform="translate(95.229644, 199.052447)"><path style="stroke:none" d="M 2.859375 -16.265625 L 2.859375 -22.328125 L 8.46875 -22.328125 L 8.46875 -16.265625 L 11.890625 -16.265625 L 11.890625 -11.984375 L 8.46875 -11.984375 L 8.46875 -6.8125 C 8.46875 -5.3125 8.890625 -4.5625 9.734375 -4.5625 C 9.953125 -4.5625 10.175781 -4.601562 10.40625 -4.6875 C 10.632812 -4.78125 10.8125 -4.867188 10.9375 -4.953125 L 11.140625 -5.078125 L 12.53125 -0.546875 C 11.320312 0.128906 9.945312 0.46875 8.40625 0.46875 C 7.34375 0.46875 6.429688 0.285156 5.671875 -0.078125 C 4.910156 -0.453125 4.332031 -0.945312 3.9375 -1.5625 C 3.550781 -2.1875 3.273438 -2.84375 3.109375 -3.53125 C 2.941406 -4.21875 2.859375 -4.953125 2.859375 -5.734375 L 2.859375 -11.984375 L 0.5 -11.984375 L 0.5 -16.265625 Z M 2.859375 -16.265625 "/></g></g><g style="fill:#000000;fill-opacity:1;"><g transform="translate(105.062922, 199.052447)"><path style="stroke:none" d="M 1.90625 0 L 1.90625 -16.265625 L 7.515625 -16.265625 L 7.515625 -13.921875 L 7.578125 -13.921875 C 7.617188 -14.003906 7.6875 -14.109375 7.78125 -14.234375 C 7.875 -14.367188 8.078125 -14.59375 8.390625 -14.90625 C 8.710938 -15.226562 9.050781 -15.515625 9.40625 -15.765625 C 9.769531 -16.015625 10.238281 -16.238281 10.8125 -16.4375 C 11.382812 -16.644531 11.96875 -16.75 12.5625 -16.75 C 13.175781 -16.75 13.773438 -16.660156 14.359375 -16.484375 C 14.953125 -16.316406 15.390625 -16.148438 15.671875 -15.984375 L 16.109375 -15.734375 L 13.765625 -10.96875 C 13.066406 -11.5625 12.09375 -11.859375 10.84375 -11.859375 C 10.164062 -11.859375 9.582031 -11.707031 9.09375 -11.40625 C 8.613281 -11.113281 8.269531 -10.753906 8.0625 -10.328125 C 7.863281 -9.910156 7.722656 -9.550781 7.640625 -9.25 C 7.554688 -8.957031 7.515625 -8.726562 7.515625 -8.5625 L 7.515625 0 Z M 1.90625 0 "/></g></g><g style="fill:#000000;fill-opacity:1;"><g transform="translate(118.163626, 199.052447)"><path style="stroke:none" d="M 7.203125 -16.265625 L 7.203125 -8.53125 C 7.203125 -6.925781 7.441406 -5.785156 7.921875 -5.109375 C 8.410156 -4.429688 9.234375 -4.09375 10.390625 -4.09375 C 11.554688 -4.09375 12.382812 -4.429688 12.875 -5.109375 C 13.363281 -5.785156 13.609375 -6.925781 13.609375 -8.53125 L 13.609375 -16.265625 L 19.21875 -16.265625 L 19.21875 -7.171875 C 19.21875 -4.460938 18.515625 -2.507812 17.109375 -1.3125 C 15.703125 -0.125 13.460938 0.46875 10.390625 0.46875 C 7.328125 0.46875 5.09375 -0.125 3.6875 -1.3125 C 2.28125 -2.507812 1.578125 -4.460938 1.578125 -7.171875 L 1.578125 -16.265625 Z M 7.203125 -16.265625 "/></g></g><g style="fill:#000000;fill-opacity:1;"><g transform="translate(136.27652, 199.052447)"><path style="stroke:none" d="M 18.359375 -7.359375 L 6.5625 -7.359375 C 6.5625 -6.210938 6.929688 -5.363281 7.671875 -4.8125 C 8.410156 -4.269531 9.21875 -4 10.09375 -4 C 11 -4 11.710938 -4.117188 12.234375 -4.359375 C 12.765625 -4.597656 13.367188 -5.078125 14.046875 -5.796875 L 18.109375 -3.78125 C 16.421875 -0.945312 13.609375 0.46875 9.671875 0.46875 C 7.222656 0.46875 5.117188 -0.367188 3.359375 -2.046875 C 1.609375 -3.722656 0.734375 -5.742188 0.734375 -8.109375 C 0.734375 -10.484375 1.609375 -12.515625 3.359375 -14.203125 C 5.117188 -15.898438 7.222656 -16.75 9.671875 -16.75 C 12.253906 -16.75 14.351562 -16.003906 15.96875 -14.515625 C 17.582031 -13.023438 18.390625 -10.894531 18.390625 -8.125 C 18.390625 -7.738281 18.378906 -7.484375 18.359375 -7.359375 Z M 6.71875 -10.46875 L 12.90625 -10.46875 C 12.78125 -11.3125 12.445312 -11.957031 11.90625 -12.40625 C 11.363281 -12.863281 10.671875 -13.09375 9.828125 -13.09375 C 8.898438 -13.09375 8.160156 -12.847656 7.609375 -12.359375 C 7.054688 -11.878906 6.757812 -11.25 6.71875 -10.46875 Z M 6.71875 -10.46875 "/></g></g><g style="fill:#000000;fill-opacity:1;"><g transform="translate(152.708107, 199.052447)"><path style="stroke:none" d=""/></g></g><g style="fill:#000000;fill-opacity:1;"><g transform="translate(158.67121, 199.052447)"><path style="stroke:none" d="M 1.171875 4 L 5.765625 1.75 C 6.617188 3.144531 8.09375 3.84375 10.1875 3.84375 C 11.15625 3.84375 12.054688 3.53125 12.890625 2.90625 C 13.722656 2.28125 14.140625 1.320312 14.140625 0.03125 L 14.140625 -1.171875 C 13.148438 -0.078125 11.375 0.46875 8.8125 0.46875 C 6.46875 0.46875 4.535156 -0.359375 3.015625 -2.015625 C 1.492188 -3.671875 0.734375 -5.703125 0.734375 -8.109375 C 0.734375 -10.523438 1.492188 -12.566406 3.015625 -14.234375 C 4.535156 -15.910156 6.46875 -16.75 8.8125 -16.75 C 10.90625 -16.75 12.648438 -16.101562 14.046875 -14.8125 L 14.140625 -14.8125 L 14.140625 -16.265625 L 19.765625 -16.265625 L 19.765625 0.4375 C 19.765625 3.082031 18.882812 5.125 17.125 6.5625 C 15.375 8 13.0625 8.71875 10.1875 8.71875 C 5.53125 8.71875 2.523438 7.144531 1.171875 4 Z M 7.78125 -10.875 C 7.050781 -10.15625 6.6875 -9.234375 6.6875 -8.109375 C 6.6875 -6.992188 7.035156 -6.082031 7.734375 -5.375 C 8.429688 -4.664062 9.351562 -4.3125 10.5 -4.3125 C 11.59375 -4.3125 12.492188 -4.671875 13.203125 -5.390625 C 13.910156 -6.109375 14.265625 -7.019531 14.265625 -8.125 C 14.265625 -9.238281 13.898438 -10.15625 13.171875 -10.875 C 12.441406 -11.59375 11.550781 -11.953125 10.5 -11.953125 C 9.414062 -11.953125 8.507812 -11.59375 7.78125 -10.875 Z M 7.78125 -10.875 "/></g></g><g style="fill:#000000;fill-opacity:1;"><g transform="translate(177.640616, 199.052447)"><path style="stroke:none" d="M 1.90625 0 L 1.90625 -16.265625 L 7.515625 -16.265625 L 7.515625 -13.921875 L 7.578125 -13.921875 C 7.617188 -14.003906 7.6875 -14.109375 7.78125 -14.234375 C 7.875 -14.367188 8.078125 -14.59375 8.390625 -14.90625 C 8.710938 -15.226562 9.050781 -15.515625 9.40625 -15.765625 C 9.769531 -16.015625 10.238281 -16.238281 10.8125 -16.4375 C 11.382812 -16.644531 11.96875 -16.75 12.5625 -16.75 C 13.175781 -16.75 13.773438 -16.660156 14.359375 -16.484375 C 14.953125 -16.316406 15.390625 -16.148438 15.671875 -15.984375 L 16.109375 -15.734375 L 13.765625 -10.96875 C 13.066406 -11.5625 12.09375 -11.859375 10.84375 -11.859375 C 10.164062 -11.859375 9.582031 -11.707031 9.09375 -11.40625 C 8.613281 -11.113281 8.269531 -10.753906 8.0625 -10.328125 C 7.863281 -9.910156 7.722656 -9.550781 7.640625 -9.25 C 7.554688 -8.957031 7.515625 -8.726562 7.515625 -8.5625 L 7.515625 0 Z M 1.90625 0 "/></g></g><g style="fill:#000000;fill-opacity:1;"><g transform="translate(190.741319, 199.052447)"><path style="stroke:none" d="M 3.4375 -1.9375 C 1.632812 -3.539062 0.734375 -5.597656 0.734375 -8.109375 C 0.734375 -10.628906 1.671875 -12.695312 3.546875 -14.3125 C 5.429688 -15.9375 7.757812 -16.75 10.53125 -16.75 C 13.257812 -16.75 15.554688 -15.929688 17.421875 -14.296875 C 19.296875 -12.671875 20.234375 -10.609375 20.234375 -8.109375 C 20.234375 -5.617188 19.316406 -3.566406 17.484375 -1.953125 C 15.660156 -0.335938 13.34375 0.46875 10.53125 0.46875 C 7.613281 0.46875 5.25 -0.332031 3.4375 -1.9375 Z M 7.78125 -10.875 C 7.050781 -10.15625 6.6875 -9.234375 6.6875 -8.109375 C 6.6875 -6.992188 7.035156 -6.082031 7.734375 -5.375 C 8.429688 -4.664062 9.351562 -4.3125 10.5 -4.3125 C 11.59375 -4.3125 12.492188 -4.671875 13.203125 -5.390625 C 13.910156 -6.109375 14.265625 -7.019531 14.265625 -8.125 C 14.265625 -9.238281 13.898438 -10.15625 13.171875 -10.875 C 12.441406 -11.59375 11.550781 -11.953125 10.5 -11.953125 C 9.414062 -11.953125 8.507812 -11.59375 7.78125 -10.875 Z M 7.78125 -10.875 "/></g></g><g style="fill:#000000;fill-opacity:1;"><g transform="translate(209.012818, 199.052447)"><path style="stroke:none" d="M 11.890625 0 L 8.09375 0 L -0.640625 -16.265625 L 5.84375 -16.265625 L 9.796875 -7.484375 L 13.703125 -16.265625 L 17.578125 -16.265625 L 21.46875 -7.484375 L 25.4375 -16.265625 L 31.90625 -16.265625 L 23.1875 0 L 19.375 0 L 15.640625 -8.40625 Z M 11.890625 0 "/></g></g><g style="fill:#000000;fill-opacity:1;"><g transform="translate(237.594195, 199.052447)"><path style="stroke:none" d="M 2.859375 -16.265625 L 2.859375 -22.328125 L 8.46875 -22.328125 L 8.46875 -16.265625 L 11.890625 -16.265625 L 11.890625 -11.984375 L 8.46875 -11.984375 L 8.46875 -6.8125 C 8.46875 -5.3125 8.890625 -4.5625 9.734375 -4.5625 C 9.953125 -4.5625 10.175781 -4.601562 10.40625 -4.6875 C 10.632812 -4.78125 10.8125 -4.867188 10.9375 -4.953125 L 11.140625 -5.078125 L 12.53125 -0.546875 C 11.320312 0.128906 9.945312 0.46875 8.40625 0.46875 C 7.34375 0.46875 6.429688 0.285156 5.671875 -0.078125 C 4.910156 -0.453125 4.332031 -0.945312 3.9375 -1.5625 C 3.550781 -2.1875 3.273438 -2.84375 3.109375 -3.53125 C 2.941406 -4.21875 2.859375 -4.953125 2.859375 -5.734375 L 2.859375 -11.984375 L 0.5 -11.984375 L 0.5 -16.265625 Z M 2.859375 -16.265625 "/></g></g><g style="fill:#000000;fill-opacity:1;"><g transform="translate(247.427462, 199.052447)"><path style="stroke:none" d="M 1.90625 0 L 1.90625 -27.28125 L 7.515625 -27.28125 L 7.515625 -14.5625 L 7.578125 -14.5625 C 9.035156 -16.019531 10.59375 -16.75 12.25 -16.75 C 13.050781 -16.75 13.847656 -16.640625 14.640625 -16.421875 C 15.429688 -16.210938 16.191406 -15.882812 16.921875 -15.4375 C 17.648438 -15 18.238281 -14.375 18.6875 -13.5625 C 19.144531 -12.75 19.375 -11.800781 19.375 -10.71875 L 19.375 0 L 13.765625 0 L 13.765625 -9.203125 C 13.765625 -10.046875 13.492188 -10.785156 12.953125 -11.421875 C 12.410156 -12.054688 11.707031 -12.375 10.84375 -12.375 C 10 -12.375 9.234375 -12.046875 8.546875 -11.390625 C 7.859375 -10.734375 7.515625 -10.003906 7.515625 -9.203125 L 7.515625 0 Z M 1.90625 0 "/></g></g><g style="fill:#000000;fill-opacity:1;"><g transform="translate(265.69896, 199.052447)"><path style="stroke:none" d=""/></g></g><g style="fill:#000000;fill-opacity:1;"><g transform="translate(271.662064, 199.052447)"><path style="stroke:none" d="M 10.5625 -12.140625 C 9.5 -12.140625 8.585938 -11.75 7.828125 -10.96875 C 7.066406 -10.1875 6.6875 -9.25 6.6875 -8.15625 C 6.6875 -7.03125 7.066406 -6.078125 7.828125 -5.296875 C 8.585938 -4.515625 9.5 -4.125 10.5625 -4.125 C 11.070312 -4.125 11.550781 -4.1875 12 -4.3125 C 12.457031 -4.4375 12.789062 -4.5625 13 -4.6875 L 13.296875 -4.890625 L 15.1875 -0.984375 C 15.039062 -0.878906 14.832031 -0.742188 14.5625 -0.578125 C 14.300781 -0.421875 13.703125 -0.207031 12.765625 0.0625 C 11.828125 0.332031 10.816406 0.46875 9.734375 0.46875 C 7.347656 0.46875 5.25 -0.367188 3.4375 -2.046875 C 1.632812 -3.722656 0.734375 -5.738281 0.734375 -8.09375 C 0.734375 -10.457031 1.632812 -12.488281 3.4375 -14.1875 C 5.25 -15.894531 7.347656 -16.75 9.734375 -16.75 C 10.816406 -16.75 11.8125 -16.617188 12.71875 -16.359375 C 13.625 -16.109375 14.269531 -15.859375 14.65625 -15.609375 L 15.1875 -15.21875 L 13.296875 -11.390625 C 12.597656 -11.890625 11.6875 -12.140625 10.5625 -12.140625 Z M 10.5625 -12.140625 "/></g></g><g style="fill:#000000;fill-opacity:1;"><g transform="translate(284.540718, 199.052447)"><path style="stroke:none" d="M 3.4375 -1.9375 C 1.632812 -3.539062 0.734375 -5.597656 0.734375 -8.109375 C 0.734375 -10.628906 1.671875 -12.695312 3.546875 -14.3125 C 5.429688 -15.9375 7.757812 -16.75 10.53125 -16.75 C 13.257812 -16.75 15.554688 -15.929688 17.421875 -14.296875 C 19.296875 -12.671875 20.234375 -10.609375 20.234375 -8.109375 C 20.234375 -5.617188 19.316406 -3.566406 17.484375 -1.953125 C 15.660156 -0.335938 13.34375 0.46875 10.53125 0.46875 C 7.613281 0.46875 5.25 -0.332031 3.4375 -1.9375 Z M 7.78125 -10.875 C 7.050781 -10.15625 6.6875 -9.234375 6.6875 -8.109375 C 6.6875 -6.992188 7.035156 -6.082031 7.734375 -5.375 C 8.429688 -4.664062 9.351562 -4.3125 10.5 -4.3125 C 11.59375 -4.3125 12.492188 -4.671875 13.203125 -5.390625 C 13.910156 -6.109375 14.265625 -7.019531 14.265625 -8.125 C 14.265625 -9.238281 13.898438 -10.15625 13.171875 -10.875 C 12.441406 -11.59375 11.550781 -11.953125 10.5 -11.953125 C 9.414062 -11.953125 8.507812 -11.59375 7.78125 -10.875 Z M 7.78125 -10.875 "/></g></g><g style="fill:#000000;fill-opacity:1;"><g transform="translate(302.812216, 199.052447)"><path style="stroke:none" d="M 5.515625 -6.78125 C 6.535156 -6.78125 7.398438 -6.425781 8.109375 -5.71875 C 8.816406 -5.007812 9.171875 -4.148438 9.171875 -3.140625 C 9.171875 -2.148438 8.816406 -1.300781 8.109375 -0.59375 C 7.398438 0.113281 6.535156 0.46875 5.515625 0.46875 C 4.523438 0.46875 3.675781 0.113281 2.96875 -0.59375 C 2.257812 -1.300781 1.90625 -2.148438 1.90625 -3.140625 C 1.90625 -4.148438 2.257812 -5.007812 2.96875 -5.71875 C 3.675781 -6.425781 4.523438 -6.78125 5.515625 -6.78125 Z M 5.515625 -6.78125 "/></g></g><path style="fill:none;stroke-width:10;stroke-linecap:butt;stroke-linejoin:miter;stroke:#292929;stroke-opacity:1;stroke-miterlimit:4;" d="M -0.00149671 5.000386 L 84.430855 5.000386 " transform="matrix(0.746252,0,0,0.746252,31.071429,228.073139)"/><path style="fill:none;stroke-width:10;stroke-linecap:butt;stroke-linejoin:miter;stroke:#292929;stroke-opacity:1;stroke-miterlimit:4;" d="M 0.00137075 4.997786 L 82.464973 4.997786 " transform="matrix(0,0.745878,-0.745878,0,38.567584,171.479446)"/><path style="fill:none;stroke-width:10;stroke-linecap:butt;stroke-linejoin:miter;stroke:#292929;stroke-opacity:1;stroke-miterlimit:4;" d="M 0.00128661 5.000518 L 84.433638 5.000518 " transform="matrix(-0.746252,0,0,-0.746252,326.153304,146.919146)"/><path style="fill:none;stroke-width:10;stroke-linecap:butt;stroke-linejoin:miter;stroke:#292929;stroke-opacity:1;stroke-miterlimit:4;" d="M 0.00149929 5.000248 L 82.465102 5.000248 " transform="matrix(0,-0.745878,0.745878,0,318.657142,203.512837)"/></g></svg>